# xmcd
#
# Track frame offsets:
#	150
#	12873
#	26568
#	39333
#	51719
#	61387
#	73245
#	83066
#	94891
#	105175
#	117549
#	130549
#	144904
#	157409
#	169646
#	181385
#	193725
#	205200
#	217352
#	227199
#
# Disc length: 3174 seconds
#
# Revision: 0
# Processed by: cddbd v1.5.2PL0 Copyright (c) Steve Scherf et al.
# Submitted via: EasyCDDAExtractor 11.1.0.1
#
DISCID=270c6414
DTITLE=Various Artist - The country Collection
DYEAR=2008
DGENRE=country
TTITLE0=Johnny Cash - Folsom prison blues
TTITLE1=Patsy Cline - A church a countroom and the goodbye
TTITLE2=Elvis Presley - Playing for keeps
TTITLE3=Hank Williams - Honky tonkin'
TTITLE4=Frankie Laine - I believe
TTITLE5=Jim Reeves - Mexican Joe
TTITLE6=Willie Nelson - I didn't sleep a wink
TTITLE7=Cowboy Copas - Signed sealed
TTITLE8=Lefty Frizzell - Give me more more 
TTITLE9=Al Dexter - I learned about love from you
TTITLE10=Big Bill Broonzy - Keep your hands of her
TTITLE11=Hayes Shepherd - Hard to love
TTITLE12=Patsy Cline - Fingerprints
TTITLE13=Bob Wills and his Texas Playboys - Goodbye Liza Jane
TTITLE14=Tennessee Ernie Ford - The shotgun boogie
TTITLE15=Carter Family - Anchored in love
TTITLE16=Jim Reeves - Yonder comes a sucker
TTITLE17=Elvis Presley - Blueberry Hill
TTITLE18=Johnny Cash - Ballad of a teenage queen
TTITLE19=Frankie Laine  - You're cheatin heart
EXTD=
EXTT0=
EXTT1=
EXTT2=
EXTT3=
EXTT4=
EXTT5=
EXTT6=
EXTT7=
EXTT8=
EXTT9=
EXTT10=
EXTT11=
EXTT12=
EXTT13=
EXTT14=
EXTT15=
EXTT16=
EXTT17=
EXTT18=
EXTT19=
PLAYORDER=
